<svg width="203" height="53" viewBox="0 0 203 53" fill="none" xmlns="http://www.w3.org/2000/svg">
<path d="M19.5971 4.94052H24.0427C26.7501 4.54265 29.515 4.89246 32.0371 5.95196C35.2012 7.85098 37.4963 10.9082 38.4326 14.4714C39.0955 16.3387 39.0955 16.3387 40.6944 15.6774H41.9423V0.89474H0.0986626V3.50116H1.81453C2.56017 3.496 3.29749 3.65756 3.97233 3.97396C4.64717 4.29036 5.24237 4.75356 5.71421 5.32954C7.31309 7.89705 7.58606 10.7758 7.58606 25.7529C7.58606 41.6638 7.23509 45.5539 5.71421 47.5379C5.33875 48.048 4.85264 48.4668 4.29218 48.7632C3.73171 49.0596 3.11137 49.2259 2.47747 49.2496C0.0986627 49.6775 0.0986626 49.6386 0.0986626 50.689C-0.0328875 51.0402 -0.0328875 51.427 0.0986626 51.7782H26.4996C26.6743 51.4346 26.7653 51.0548 26.7653 50.6695C26.7653 50.2842 26.6743 49.9044 26.4996 49.5608C25.8601 49.3833 25.2084 49.2533 24.5497 49.1718C23.8371 49.0873 23.1328 48.9441 22.4439 48.7439C21.4573 48.0254 20.6758 47.0625 20.1765 45.9504C19.6772 44.8383 19.4775 43.6155 19.5971 42.4029C19.2071 39.8354 19.0122 35.1283 19.0122 31.2381V28.1649H20.572C22.5155 28.1055 24.4577 28.315 26.3436 28.7873C27.247 29.3442 28.016 30.0932 28.5958 30.9809C29.1755 31.8685 29.5516 32.8729 29.6973 33.9223L30.0483 35.1283H32.4271V17.8948H30.2433L29.8923 19.5676C29.7446 20.6407 29.3466 21.6644 28.7303 22.5562C28.114 23.4481 27.2965 24.1832 26.3436 24.7026C25.4207 24.9766 24.4485 25.043 23.4968 24.8971H19.0122V20.6957C19.0122 16.3387 19.2461 7.15792 19.4021 5.71855L19.5971 4.94052ZM202.103 35.7896C200.259 32.83 197.384 30.6547 194.03 29.682C191.459 28.8803 189.082 27.5557 187.05 25.7918C186.592 25.3506 186.25 24.8044 186.053 24.2009C185.856 23.5974 185.81 22.9549 185.919 22.3296C185.922 21.103 186.413 19.9277 187.284 19.0618C187.874 18.4451 188.621 17.9999 189.445 17.7738C190.27 17.5477 191.14 17.5492 191.963 17.7781C193.668 18.2628 195.21 19.1984 196.425 20.4859C197.64 21.7735 198.483 23.3649 198.866 25.0916C199.49 26.8422 199.568 26.8422 200.699 26.3754L201.401 26.1031V16.4165L200.894 16.1831C197.054 14.838 192.982 14.2822 188.922 14.5492C185.425 14.6376 182.087 16.0249 179.562 18.4394C178.417 19.5088 177.52 20.8149 176.934 22.2664C176.348 23.7179 176.087 25.2796 176.17 26.8422C176.191 29.2312 177.142 31.5185 178.821 33.2221C180.677 35.0427 182.954 36.3788 185.451 37.1122C191.495 39.4853 193.25 41.0024 193.25 43.7644C193.276 44.9292 192.904 46.0681 192.196 46.9942C191.487 47.9203 190.484 48.5784 189.351 48.8606C187.989 49.159 186.579 49.159 185.217 48.8606C183.434 48.1703 181.842 47.0654 180.574 45.6377C179.305 44.21 178.397 42.5008 177.924 40.6523L177.417 39.4075H176.716C176.38 39.4323 176.051 39.5111 175.741 39.6409H175.351V50.689H176.014C178.648 51.5632 181.366 52.1629 184.125 52.4784H188.025C189.716 52.6022 191.416 52.4445 193.055 52.0116C195.136 51.6285 197.081 50.7088 198.695 49.3439C200.31 47.979 201.538 46.2164 202.259 44.2313C202.724 43.1225 202.963 41.9321 202.96 40.7301C203.114 39.0367 202.818 37.3328 202.103 35.7896ZM165.367 15.6774C163.031 14.6987 160.513 14.2239 157.979 14.2842C155.445 14.3446 152.953 14.9387 150.666 16.0275C148.516 17.0766 146.61 18.5638 145.072 20.3931C143.534 22.2224 142.397 24.3531 141.735 26.6477C140.892 29.1508 140.534 31.7914 140.682 34.428C140.654 35.8626 140.772 37.2963 141.033 38.7072C141.663 42.1765 143.342 45.3704 145.845 47.86C148.347 50.3496 151.554 52.0155 155.033 52.634C157.299 52.9188 159.592 52.9188 161.858 52.634C164.209 52.2206 166.459 51.3623 168.487 50.1054C170.165 49.1673 171.584 47.8312 172.621 46.2153C172.554 45.9617 172.437 45.7242 172.276 45.517C172.116 45.3097 171.914 45.137 171.685 45.0093C171.24 45.1701 170.82 45.3927 170.437 45.6706C168.497 46.9458 166.207 47.585 163.886 47.499C162.345 47.6029 160.8 47.3636 159.363 46.7984C157.927 46.2332 156.634 45.3563 155.579 44.2313C154.763 43.4751 154.09 42.5792 153.59 41.5859C152.379 39.1675 151.726 36.5089 151.68 33.8056V32.2884H173.284V31.5104C173.332 30.7331 173.332 29.9536 173.284 29.1763C173.276 26.4295 172.54 23.7336 171.149 21.3627C169.759 18.9917 167.764 17.0302 165.367 15.6774ZM154.487 29.1374H151.758V26.8422C152.654 20.968 154.877 17.4669 157.607 17.4669C160.337 17.4669 161.507 20.9291 162.014 27.2701V29.0596H159.674L154.487 29.1374ZM98.4098 14.3936C97.0623 14.3415 95.7228 14.6221 94.5101 15.2106C91.8744 16.4874 89.7456 18.6111 88.4656 21.2403L87.9587 22.174V14.3936H87.7637C87.2957 14.3936 72.8669 17.2724 72.3989 17.4669C71.9309 17.6614 72.0869 17.7003 72.0869 18.4005C72.0869 19.1007 72.0869 19.2175 72.3989 19.2564L73.9198 19.5676C74.3457 19.578 74.7637 19.685 75.1421 19.8804C75.5204 20.0759 75.8493 20.3547 76.1036 20.6957C77.0785 21.9795 77.2735 24.2358 77.2735 33.8445C77.4661 38.1702 77.2835 42.5045 76.7275 46.7988C76.5967 47.4463 76.2675 48.0373 75.7855 48.4903C75.3036 48.9432 74.6925 49.2357 74.0368 49.3274L72.7109 49.5997H72.2039V50.689C72.0624 51.0518 72.0624 51.4543 72.2039 51.8171H94.0032V50.689C94.0788 50.3167 94.0788 49.9331 94.0032 49.5608C92.6906 49.5098 91.3854 49.3405 90.1035 49.0551C89.4054 48.6908 88.8342 48.1242 88.4653 47.4297C88.0964 46.7353 87.9469 45.9457 88.0366 45.1649C87.7247 42.9086 87.5687 36.2953 87.6467 31.2381C87.7247 26.1809 87.6467 25.8697 88.0756 25.5195C89.3806 24.5214 90.9953 24.012 92.6383 24.0802C94.1869 24.1139 95.7074 24.4997 97.0839 25.2083C97.5611 25.4727 98.073 25.6691 98.6048 25.7918C98.6048 25.7918 102.504 16.3776 102.504 15.9497C102.005 15.3712 101.37 14.926 100.655 14.6543C99.9398 14.3826 99.1682 14.293 98.4098 14.3936ZM72.1259 30.7324C71.9898 27.9525 71.1897 25.2453 69.7924 22.8363C68.395 20.4273 66.4408 18.3863 64.0926 16.8834C61.3019 15.3815 58.1972 14.5535 55.0276 14.4656C51.858 14.3778 48.7119 15.0327 45.842 16.3776C41.7843 18.5121 38.7207 22.1405 37.3017 26.4921C35.8361 31.3642 35.8361 36.5582 37.3017 41.4303C38.07 44.0931 39.5061 46.5164 41.4744 48.4716C43.9257 50.8576 47.0865 52.3864 50.4826 52.8285C52.6627 53.0104 54.8541 53.0104 57.0341 52.8285C57.8363 52.7068 58.6306 52.5379 59.4129 52.3228C62.5871 51.4371 65.4428 49.6678 67.6459 47.2222C69.8489 44.7765 71.3082 41.7555 71.8529 38.5127C72.2422 35.9382 72.3338 33.3277 72.1259 30.7324ZM55.9032 50.1832C52.0035 51.3503 49.0788 47.5768 48.1038 39.6409C47.7458 35.486 47.7458 31.3082 48.1038 27.1534C48.8838 20.7735 50.8726 17.5447 53.9534 17.5447C54.5749 17.5063 55.1966 17.6169 55.7666 17.8673C56.3365 18.1177 56.838 18.5006 57.2291 18.984C59.8419 21.5905 61.1288 26.7644 61.1288 34.5447C61.4533 38.948 60.7595 43.3667 59.1009 47.4601C58.3686 48.6539 57.2355 49.5499 55.9032 49.9887V50.1832ZM126.098 15.1717C124.997 15.0304 123.883 15.0304 122.783 15.1717C120.671 15.1699 118.583 15.621 116.66 16.4943L115.451 17.0001V8.55838C115.663 5.70948 115.663 2.8489 115.451 0C114.983 0 100.087 2.83983 99.8527 2.95653C99.7377 3.24374 99.7377 3.56406 99.8527 3.85127C99.8527 4.66821 99.8527 4.62931 101.608 5.01832C102.1 5.12855 102.574 5.31215 103.011 5.56295C103.773 6.27702 104.279 7.21953 104.454 8.24717C104.898 11.2077 105.042 14.2053 104.883 17.1946V51.3503L105.936 51.5837C107.496 51.9338 111.903 52.6729 113.346 52.8285C116.227 53.0572 119.122 53.0572 122.003 52.8285C125.201 52.5027 128.249 51.3125 130.819 49.3862C133.389 47.4599 135.384 44.8706 136.588 41.8972C137.305 39.9888 137.803 38.0049 138.07 35.9841C138.302 33.2468 138.21 30.4918 137.797 27.7758C137.378 24.7315 136.031 21.8891 133.939 19.6344C131.846 17.3796 129.108 15.8216 126.098 15.1717ZM115.88 49.5219C115.88 49.0162 115.49 31.9772 115.568 25.1694V19.8399L116.699 19.5676C117.462 19.4585 118.237 19.4585 119 19.5676C119.844 19.482 120.693 19.6732 121.418 20.1122C122.874 21.1148 124.084 22.434 124.955 23.9703C125.826 25.5066 126.337 27.2201 126.449 28.9818C126.733 31.8145 126.733 34.6685 126.449 37.5013C126.215 41.6184 124.625 45.5434 121.925 48.6661C121.159 49.3922 120.196 49.879 119.156 50.0665C118.369 50.2031 117.564 50.2031 116.777 50.0665C116.036 50.0665 116.036 49.8331 116.036 49.5219H115.88Z" fill="white"/>
</svg>
