<svg width="160" height="160" viewBox="0 0 160 160" fill="none" xmlns="http://www.w3.org/2000/svg">
<g clip-path="url(#clip0_491_661)">
<path d="M160 0H0V160H160V0Z" fill="white"/>
<path d="M16.6667 10H10V16.6667H16.6667V10Z" fill="black"/>
<path d="M23.3333 10H16.6667V16.6667H23.3333V10Z" fill="black"/>
<path d="M30 10H23.3333V16.6667H30V10Z" fill="black"/>
<path d="M36.6667 10H30V16.6667H36.6667V10Z" fill="black"/>
<path d="M43.3333 10H36.6667V16.6667H43.3333V10Z" fill="black"/>
<path d="M50 10H43.3333V16.6667H50V10Z" fill="black"/>
<path d="M56.6667 10H50V16.6667H56.6667V10Z" fill="black"/>
<path d="M70 10H63.3333V16.6667H70V10Z" fill="black"/>
<path d="M76.6667 10H70V16.6667H76.6667V10Z" fill="black"/>
<path d="M110 10H103.333V16.6667H110V10Z" fill="black"/>
<path d="M116.667 10H110V16.6667H116.667V10Z" fill="black"/>
<path d="M123.333 10H116.667V16.6667H123.333V10Z" fill="black"/>
<path d="M130 10H123.333V16.6667H130V10Z" fill="black"/>
<path d="M136.667 10H130V16.6667H136.667V10Z" fill="black"/>
<path d="M143.333 10H136.667V16.6667H143.333V10Z" fill="black"/>
<path d="M150 10H143.333V16.6667H150V10Z" fill="black"/>
<path d="M16.6667 16.6667H10V23.3333H16.6667V16.6667Z" fill="black"/>
<path d="M56.6667 16.6667H50V23.3333H56.6667V16.6667Z" fill="black"/>
<path d="M76.6667 16.6667H70L70 23.3333H76.6667V16.6667Z" fill="black"/>
<path d="M83.3333 16.6667H76.6667V23.3333H83.3333V16.6667Z" fill="black"/>
<path d="M90 16.6667H83.3333V23.3333H90V16.6667Z" fill="black"/>
<path d="M110 16.6667H103.333V23.3333H110V16.6667Z" fill="black"/>
<path d="M150 16.6667H143.333V23.3333H150V16.6667Z" fill="black"/>
<path d="M16.6667 23.3333H10V30H16.6667V23.3333Z" fill="black"/>
<path d="M30 23.3333H23.3333V30H30V23.3333Z" fill="black"/>
<path d="M36.6667 23.3333H30V30H36.6667V23.3333Z" fill="black"/>
<path d="M43.3333 23.3333H36.6667V30H43.3333V23.3333Z" fill="black"/>
<path d="M56.6667 23.3333H50V30H56.6667V23.3333Z" fill="black"/>
<path d="M70 23.3333H63.3333V30H70L70 23.3333Z" fill="black"/>
<path d="M76.6667 23.3333H70L70 30H76.6667V23.3333Z" fill="black"/>
<path d="M83.3333 23.3333H76.6667V30H83.3333V23.3333Z" fill="black"/>
<path d="M90 23.3333H83.3333V30H90V23.3333Z" fill="black"/>
<path d="M96.6667 23.3333H90V30H96.6667V23.3333Z" fill="black"/>
<path d="M110 23.3333H103.333V30H110V23.3333Z" fill="black"/>
<path d="M123.333 23.3333H116.667V30H123.333V23.3333Z" fill="black"/>
<path d="M130 23.3333H123.333V30H130V23.3333Z" fill="black"/>
<path d="M136.667 23.3333H130V30H136.667V23.3333Z" fill="black"/>
<path d="M150 23.3333H143.333V30H150V23.3333Z" fill="black"/>
<path d="M16.6667 30H10V36.6667H16.6667V30Z" fill="black"/>
<path d="M30 30H23.3333V36.6667H30V30Z" fill="black"/>
<path d="M36.6667 30H30V36.6667H36.6667V30Z" fill="black"/>
<path d="M43.3333 30H36.6667V36.6667H43.3333V30Z" fill="black"/>
<path d="M56.6667 30H50V36.6667H56.6667V30Z" fill="black"/>
<path d="M70 30H63.3333V36.6667H70V30Z" fill="black"/>
<path d="M83.3333 30H76.6667L76.6667 36.6667H83.3333V30Z" fill="black"/>
<path d="M96.6667 30H90V36.6667H96.6667V30Z" fill="black"/>
<path d="M110 30H103.333V36.6667H110V30Z" fill="black"/>
<path d="M123.333 30H116.667V36.6667H123.333V30Z" fill="black"/>
<path d="M130 30H123.333V36.6667H130V30Z" fill="black"/>
<path d="M136.667 30H130V36.6667H136.667V30Z" fill="black"/>
<path d="M150 30H143.333V36.6667H150V30Z" fill="black"/>
<path d="M16.6667 36.6667H10V43.3333H16.6667V36.6667Z" fill="black"/>
<path d="M30 36.6667H23.3333V43.3333H30V36.6667Z" fill="black"/>
<path d="M36.6667 36.6667H30V43.3333H36.6667V36.6667Z" fill="black"/>
<path d="M43.3333 36.6667H36.6667V43.3333H43.3333V36.6667Z" fill="black"/>
<path d="M56.6667 36.6667H50V43.3333H56.6667V36.6667Z" fill="black"/>
<path d="M70 36.6667H63.3333V43.3333H70V36.6667Z" fill="black"/>
<path d="M83.3333 36.6667H76.6667V43.3333H83.3333V36.6667Z" fill="black"/>
<path d="M90 36.6667H83.3333V43.3333H90V36.6667Z" fill="black"/>
<path d="M110 36.6667H103.333V43.3333H110V36.6667Z" fill="black"/>
<path d="M123.333 36.6667H116.667V43.3333H123.333V36.6667Z" fill="black"/>
<path d="M130 36.6667H123.333V43.3333H130V36.6667Z" fill="black"/>
<path d="M136.667 36.6667H130V43.3333H136.667V36.6667Z" fill="black"/>
<path d="M150 36.6667H143.333V43.3333H150V36.6667Z" fill="black"/>
<path d="M16.6667 43.3333H10V50H16.6667V43.3333Z" fill="black"/>
<path d="M56.6667 43.3333H50V50H56.6667V43.3333Z" fill="black"/>
<path d="M70 43.3333H63.3333V50H70V43.3333Z" fill="black"/>
<path d="M76.6667 43.3333H70V50H76.6667L76.6667 43.3333Z" fill="black"/>
<path d="M83.3333 43.3333H76.6667L76.6667 50H83.3333V43.3333Z" fill="black"/>
<path d="M90 43.3333H83.3333V50H90V43.3333Z" fill="black"/>
<path d="M110 43.3333H103.333V50H110V43.3333Z" fill="black"/>
<path d="M150 43.3333H143.333V50H150V43.3333Z" fill="black"/>
<path d="M16.6667 50H10V56.6667H16.6667V50Z" fill="black"/>
<path d="M23.3333 50H16.6667V56.6667H23.3333V50Z" fill="black"/>
<path d="M30 50H23.3333V56.6667H30V50Z" fill="black"/>
<path d="M36.6667 50H30V56.6667H36.6667V50Z" fill="black"/>
<path d="M43.3333 50H36.6667V56.6667H43.3333V50Z" fill="black"/>
<path d="M50 50H43.3333V56.6667H50V50Z" fill="black"/>
<path d="M56.6667 50H50V56.6667H56.6667V50Z" fill="black"/>
<path d="M70 50H63.3333V56.6667H70V50Z" fill="black"/>
<path d="M83.3333 50H76.6667L76.6667 56.6667H83.3333V50Z" fill="black"/>
<path d="M96.6667 50H90V56.6667H96.6667V50Z" fill="black"/>
<path d="M110 50H103.333V56.6667H110V50Z" fill="black"/>
<path d="M116.667 50H110V56.6667H116.667V50Z" fill="black"/>
<path d="M123.333 50H116.667V56.6667H123.333V50Z" fill="black"/>
<path d="M130 50H123.333V56.6667H130V50Z" fill="black"/>
<path d="M136.667 50H130V56.6667H136.667V50Z" fill="black"/>
<path d="M143.333 50H136.667V56.6667H143.333V50Z" fill="black"/>
<path d="M150 50H143.333V56.6667H150V50Z" fill="black"/>
<path d="M76.6667 56.6667H70L70 63.3333H76.6667L76.6667 56.6667Z" fill="black"/>
<path d="M96.6667 56.6667H90V63.3333H96.6667V56.6667Z" fill="black"/>
<path d="M30 63.3333H23.3333V70H30V63.3333Z" fill="black"/>
<path d="M36.6667 63.3333H30V70H36.6667V63.3333Z" fill="black"/>
<path d="M43.3333 63.3333H36.6667V70H43.3333V63.3333Z" fill="black"/>
<path d="M50 63.3333H43.3333V70H50V63.3333Z" fill="black"/>
<path d="M56.6667 63.3333H50V70H56.6667V63.3333Z" fill="black"/>
<path d="M63.3333 63.3333H56.6667V70H63.3333V63.3333Z" fill="black"/>
<path d="M76.6667 63.3333H70V70H76.6667V63.3333Z" fill="black"/>
<path d="M83.3333 63.3333L76.6667 63.3333V70H83.3333V63.3333Z" fill="black"/>
<path d="M103.333 63.3333L96.6667 63.3333V70H103.333V63.3333Z" fill="black"/>
<path d="M116.667 63.3333H110V70H116.667V63.3333Z" fill="black"/>
<path d="M123.333 63.3333H116.667V70H123.333V63.3333Z" fill="black"/>
<path d="M130 63.3333H123.333V70H130V63.3333Z" fill="black"/>
<path d="M136.667 63.3333H130V70H136.667V63.3333Z" fill="black"/>
<path d="M150 63.3333H143.333V70H150V63.3333Z" fill="black"/>
<path d="M30 70H23.3333V76.6667H30V70Z" fill="black"/>
<path d="M36.6667 70H30V76.6667H36.6667V70Z" fill="black"/>
<path d="M50 70H43.3333V76.6667H50V70Z" fill="black"/>
<path d="M76.6667 70H70V76.6667H76.6667V70Z" fill="black"/>
<path d="M90 70L83.3333 70L83.3333 76.6667H90V70Z" fill="black"/>
<path d="M110 70H103.333V76.6667H110V70Z" fill="black"/>
<path d="M123.333 70H116.667V76.6667H123.333V70Z" fill="black"/>
<path d="M136.667 70H130V76.6667H136.667V70Z" fill="black"/>
<path d="M150 70H143.333V76.6667H150V70Z" fill="black"/>
<path d="M23.3333 76.6667L16.6667 76.6667V83.3333H23.3333V76.6667Z" fill="black"/>
<path d="M36.6667 76.6667H30V83.3333H36.6667V76.6667Z" fill="black"/>
<path d="M43.3333 76.6667H36.6667V83.3333H43.3333V76.6667Z" fill="black"/>
<path d="M50 76.6667H43.3333V83.3333H50V76.6667Z" fill="black"/>
<path d="M56.6667 76.6667L50 76.6667V83.3333H56.6667V76.6667Z" fill="black"/>
<path d="M63.3333 76.6667H56.6667V83.3333H63.3333V76.6667Z" fill="black"/>
<path d="M70 76.6667L63.3333 76.6667V83.3333H70L70 76.6667Z" fill="black"/>
<path d="M76.6667 76.6667H70L70 83.3333H76.6667V76.6667Z" fill="black"/>
<path d="M83.3333 76.6667H76.6667V83.3333H83.3333L83.3333 76.6667Z" fill="black"/>
<path d="M96.6667 76.6667L90 76.6667V83.3333H96.6667V76.6667Z" fill="black"/>
<path d="M116.667 76.6667H110V83.3333H116.667V76.6667Z" fill="black"/>
<path d="M123.333 76.6667H116.667V83.3333H123.333V76.6667Z" fill="black"/>
<path d="M136.667 76.6667H130V83.3333H136.667V76.6667Z" fill="black"/>
<path d="M23.3333 83.3333H16.6667V90H23.3333V83.3333Z" fill="black"/>
<path d="M30 83.3333H23.3333V90H30V83.3333Z" fill="black"/>
<path d="M36.6667 83.3333H30V90H36.6667V83.3333Z" fill="black"/>
<path d="M43.3333 83.3333H36.6667V90H43.3333V83.3333Z" fill="black"/>
<path d="M63.3333 83.3333H56.6667V90H63.3333V83.3333Z" fill="black"/>
<path d="M83.3333 83.3333H76.6667L76.6667 90H83.3333V83.3333Z" fill="black"/>
<path d="M96.6667 83.3333H90V90H96.6667V83.3333Z" fill="black"/>
<path d="M103.333 83.3333L96.6667 83.3333V90H103.333V83.3333Z" fill="black"/>
<path d="M116.667 83.3333H110V90H116.667V83.3333Z" fill="black"/>
<path d="M136.667 83.3333H130V90H136.667V83.3333Z" fill="black"/>
<path d="M150 83.3333H143.333V90H150V83.3333Z" fill="black"/>
<path d="M23.3333 90H16.6667V96.6667H23.3333V90Z" fill="black"/>
<path d="M36.6667 90H30V96.6667H36.6667V90Z" fill="black"/>
<path d="M43.3333 90H36.6667V96.6667H43.3333V90Z" fill="black"/>
<path d="M50 90H43.3333V96.6667H50V90Z" fill="black"/>
<path d="M56.6667 90H50V96.6667H56.6667V90Z" fill="black"/>
<path d="M63.3333 90H56.6667V96.6667H63.3333V90Z" fill="black"/>
<path d="M70 90H63.3333V96.6667H70V90Z" fill="black"/>
<path d="M76.6667 90H70V96.6667H76.6667L76.6667 90Z" fill="black"/>
<path d="M103.333 90H96.6667V96.6667H103.333V90Z" fill="black"/>
<path d="M110 90H103.333V96.6667H110V90Z" fill="black"/>
<path d="M116.667 90H110V96.6667H116.667V90Z" fill="black"/>
<path d="M123.333 90H116.667V96.6667H123.333V90Z" fill="black"/>
<path d="M130 90H123.333V96.6667H130V90Z" fill="black"/>
<path d="M83.3333 96.6667H76.6667L76.6667 103.333H83.3333V96.6667Z" fill="black"/>
<path d="M103.333 96.6667H96.6667V103.333H103.333V96.6667Z" fill="black"/>
<path d="M116.667 96.6667H110V103.333H116.667V96.6667Z" fill="black"/>
<path d="M136.667 96.6667H130V103.333H136.667V96.6667Z" fill="black"/>
<path d="M150 96.6667H143.333V103.333H150V96.6667Z" fill="black"/>
<path d="M16.6667 103.333H10V110H16.6667V103.333Z" fill="black"/>
<path d="M23.3333 103.333H16.6667V110H23.3333V103.333Z" fill="black"/>
<path d="M30 103.333H23.3333V110H30V103.333Z" fill="black"/>
<path d="M36.6667 103.333H30V110H36.6667V103.333Z" fill="black"/>
<path d="M43.3333 103.333H36.6667V110H43.3333V103.333Z" fill="black"/>
<path d="M50 103.333H43.3333V110H50V103.333Z" fill="black"/>
<path d="M56.6667 103.333H50V110H56.6667V103.333Z" fill="black"/>
<path d="M70 103.333H63.3333V110H70V103.333Z" fill="black"/>
<path d="M76.6667 103.333H70V110H76.6667L76.6667 103.333Z" fill="black"/>
<path d="M103.333 103.333H96.6667V110H103.333V103.333Z" fill="black"/>
<path d="M110 103.333H103.333V110H110V103.333Z" fill="black"/>
<path d="M116.667 103.333H110V110H116.667V103.333Z" fill="black"/>
<path d="M16.6667 110H10V116.667H16.6667V110Z" fill="black"/>
<path d="M56.6667 110H50V116.667H56.6667V110Z" fill="black"/>
<path d="M70 110H63.3333V116.667H70V110Z" fill="black"/>
<path d="M90 110H83.3333V116.667H90V110Z" fill="black"/>
<path d="M116.667 110H110V116.667H116.667V110Z" fill="black"/>
<path d="M123.333 110H116.667V116.667H123.333V110Z" fill="black"/>
<path d="M16.6667 116.667H10V123.333H16.6667V116.667Z" fill="black"/>
<path d="M30 116.667H23.3333V123.333H30V116.667Z" fill="black"/>
<path d="M36.6667 116.667H30V123.333H36.6667V116.667Z" fill="black"/>
<path d="M43.3333 116.667H36.6667V123.333H43.3333V116.667Z" fill="black"/>
<path d="M56.6667 116.667H50V123.333H56.6667V116.667Z" fill="black"/>
<path d="M70 116.667H63.3333V123.333H70V116.667Z" fill="black"/>
<path d="M76.6667 116.667H70V123.333H76.6667V116.667Z" fill="black"/>
<path d="M103.333 116.667H96.6667V123.333H103.333V116.667Z" fill="black"/>
<path d="M116.667 116.667H110V123.333H116.667V116.667Z" fill="black"/>
<path d="M130 116.667H123.333V123.333H130V116.667Z" fill="black"/>
<path d="M16.6667 123.333H10V130H16.6667V123.333Z" fill="black"/>
<path d="M30 123.333H23.3333V130H30V123.333Z" fill="black"/>
<path d="M36.6667 123.333H30V130H36.6667V123.333Z" fill="black"/>
<path d="M43.3333 123.333H36.6667V130H43.3333V123.333Z" fill="black"/>
<path d="M56.6667 123.333H50V130H56.6667V123.333Z" fill="black"/>
<path d="M70 123.333H63.3333V130H70V123.333Z" fill="black"/>
<path d="M90 123.333H83.3333V130H90V123.333Z" fill="black"/>
<path d="M103.333 123.333H96.6667V130H103.333V123.333Z" fill="black"/>
<path d="M110 123.333H103.333V130H110V123.333Z" fill="black"/>
<path d="M116.667 123.333H110V130H116.667V123.333Z" fill="black"/>
<path d="M123.333 123.333H116.667V130H123.333V123.333Z" fill="black"/>
<path d="M143.333 123.333H136.667V130H143.333V123.333Z" fill="black"/>
<path d="M16.6667 130H10V136.667H16.6667V130Z" fill="black"/>
<path d="M30 130H23.3333V136.667H30V130Z" fill="black"/>
<path d="M36.6667 130H30V136.667H36.6667V130Z" fill="black"/>
<path d="M43.3333 130H36.6667V136.667H43.3333V130Z" fill="black"/>
<path d="M56.6667 130H50V136.667H56.6667V130Z" fill="black"/>
<path d="M70 130H63.3333V136.667H70V130Z" fill="black"/>
<path d="M76.6667 130H70V136.667H76.6667V130Z" fill="black"/>
<path d="M90 130H83.3333V136.667H90V130Z" fill="black"/>
<path d="M116.667 130H110V136.667H116.667V130Z" fill="black"/>
<path d="M130 130H123.333V136.667H130V130Z" fill="black"/>
<path d="M136.667 130H130V136.667H136.667V130Z" fill="black"/>
<path d="M143.333 130H136.667V136.667H143.333V130Z" fill="black"/>
<path d="M16.6667 136.667H10V143.333H16.6667V136.667Z" fill="black"/>
<path d="M56.6667 136.667H50V143.333H56.6667V136.667Z" fill="black"/>
<path d="M76.6667 136.667H70L70 143.333H76.6667V136.667Z" fill="black"/>
<path d="M83.3333 136.667H76.6667V143.333H83.3333L83.3333 136.667Z" fill="black"/>
<path d="M103.333 136.667H96.6667V143.333H103.333V136.667Z" fill="black"/>
<path d="M110 136.667H103.333V143.333H110V136.667Z" fill="black"/>
<path d="M150 136.667H143.333V143.333H150V136.667Z" fill="black"/>
<path d="M16.6667 143.333H10V150H16.6667V143.333Z" fill="black"/>
<path d="M23.3333 143.333H16.6667V150H23.3333V143.333Z" fill="black"/>
<path d="M30 143.333H23.3333V150H30V143.333Z" fill="black"/>
<path d="M36.6667 143.333H30V150H36.6667V143.333Z" fill="black"/>
<path d="M43.3333 143.333H36.6667V150H43.3333V143.333Z" fill="black"/>
<path d="M50 143.333H43.3333V150H50V143.333Z" fill="black"/>
<path d="M56.6667 143.333H50V150H56.6667V143.333Z" fill="black"/>
<path d="M76.6667 143.333H70V150H76.6667V143.333Z" fill="black"/>
<path d="M123.333 143.333H116.667V150H123.333V143.333Z" fill="black"/>
</g>
<defs>
<clipPath id="clip0_491_661">
<rect width="160" height="160" fill="white"/>
</clipPath>
</defs>
</svg>
