<svg width="24" height="24" viewBox="0 0 24 24" fill="none" xmlns="http://www.w3.org/2000/svg">
<g clip-path="url(#clip0_364_941)">
<path d="M12 18.9967H14V5.99669L20.394 8.73669C20.574 8.81385 20.7274 8.94217 20.8351 9.10572C20.9428 9.26927 21.0002 9.46085 21 9.65669V18.9967H23V20.9967H1V18.9967H3V5.64669C2.99998 5.45321 3.05608 5.26387 3.16151 5.10164C3.26695 4.93941 3.41718 4.81124 3.594 4.73269L11.297 1.30869C11.3732 1.27483 11.4567 1.26057 11.5398 1.26721C11.6229 1.27385 11.7031 1.30117 11.7729 1.34669C11.8428 1.39221 11.9002 1.45448 11.9398 1.52784C11.9795 1.60119 12.0002 1.6833 12 1.76669V18.9967Z" fill="#09121F"/>
</g>
<defs>
<clipPath id="clip0_364_941">
<rect width="24" height="24" fill="white"/>
</clipPath>
</defs>
</svg>
