<svg width="25" height="24" viewBox="0 0 25 24" fill="none" xmlns="http://www.w3.org/2000/svg">
<g clip-path="url(#clip0_364_975)">
<path d="M4.25 3H20.25C20.5152 3 20.7696 3.10536 20.9571 3.29289C21.1446 3.48043 21.25 3.73478 21.25 4V20C21.25 20.2652 21.1446 20.5196 20.9571 20.7071C20.7696 20.8946 20.5152 21 20.25 21H4.25C3.98478 21 3.73043 20.8946 3.54289 20.7071C3.35536 20.5196 3.25 20.2652 3.25 20V4C3.25 3.73478 3.35536 3.48043 3.54289 3.29289C3.73043 3.10536 3.98478 3 4.25 3V3ZM11.253 16L18.323 8.929L16.909 7.515L11.253 13.172L8.424 10.343L7.01 11.757L11.253 16Z" fill="#191C38"/>
</g>
<defs>
<clipPath id="clip0_364_975">
<rect width="24" height="24" fill="white" transform="translate(0.25)"/>
</clipPath>
</defs>
</svg>
