<svg width="25" height="24" viewBox="0 0 25 24" fill="none" xmlns="http://www.w3.org/2000/svg">
<path d="M12.75 22C7.227 22 2.75 17.523 2.75 12C2.75 6.477 7.227 2 12.75 2C18.273 2 22.75 6.477 22.75 12C22.75 17.523 18.273 22 12.75 22ZM19.105 15.952V15.847C19.105 14.925 19.105 14.504 18.453 14.131C18.2434 14.0122 18.0282 13.9037 17.808 13.806C17.441 13.639 17.198 13.53 16.87 13.05C16.8308 12.993 16.7922 12.9357 16.754 12.878C16.409 12.353 16.16 11.975 15.212 12.125C13.347 12.421 13.209 12.749 13.127 13.303L13.114 13.394C12.993 14.204 12.971 14.476 13.309 14.831C14.574 16.158 15.332 17.115 15.562 17.675C15.674 17.948 15.962 18.775 15.764 19.593C16.9778 19.1095 18.0583 18.3425 18.915 17.356C19.025 16.982 19.105 16.516 19.105 15.952V15.952ZM12.75 3.833C10.433 3.833 8.34 4.799 6.854 6.349C7.031 6.472 7.185 6.645 7.291 6.883C7.495 7.34 7.495 7.811 7.495 8.228C7.495 8.556 7.495 8.868 7.6 9.093C7.744 9.401 8.366 9.533 8.915 9.647C9.112 9.689 9.314 9.731 9.498 9.782C10.004 9.922 10.396 10.377 10.709 10.742C10.839 10.893 11.032 11.116 11.129 11.172C11.179 11.136 11.34 10.961 11.419 10.674C11.481 10.454 11.463 10.26 11.374 10.154C10.814 9.494 10.845 8.224 11.018 7.755C11.29 7.016 12.14 7.071 12.762 7.111C12.994 7.126 13.212 7.141 13.376 7.12C13.998 7.042 14.19 6.095 14.325 5.91C14.617 5.51 15.511 4.907 16.065 4.535C15.0215 4.07099 13.892 3.83181 12.75 3.833V3.833Z" fill="#191C38"/>
</svg>
